<svg width="35" height="25" viewBox="0 0 35 25" fill="none" xmlns="http://www.w3.org/2000/svg">
<path d="M23.0318 13.4529L13.4611 18.0605C12.8672 18.3464 12.1946 17.9058 12.1946 17.2599V7.75667C12.1946 7.10155 12.8851 6.66113 13.4802 6.96559L23.0318 13.4529ZM23.0318 13.4529C23.0318 13.4529 23.0318 13.4529 23.0318 13.4529C23.6924 13.1349 23.7032 12.1948 23.0509 11.8612C23.0509 11.8612 23.0509 11.8612 23.0509 11.8612L13.4802 6.96561L23.0318 13.4529ZM7.26905 0.5H27.7309C31.465 0.5 34.5 3.55681 34.5 7.33747V17.6625C34.5 21.4432 31.465 24.5 27.7309 24.5H7.26905C3.53501 24.5 0.5 21.4432 0.5 17.6625V7.33747C0.5 3.55681 3.53501 0.5 7.26905 0.5Z" fill="#E0E0E0" stroke="black"/>
</svg>
